<svg xmlns="http://www.w3.org/2000/svg" viewBox="0 0 512 512">
  <rect x="0" y="0" width="512" height="512" fill="#F8E4E7"/>
  <rect x="64" y="64" width="384" height="384" rx="72" ry="72" fill="#F3CFD4"/>
  <rect x="64" y="256" width="384" height="192" rx="0" ry="0" fill="#BFD2E8"/>
  <rect x="64" y="64" width="384" height="384" rx="72" ry="72" fill="none" stroke="#FFFFFF" stroke-opacity="0.5" stroke-width="2"/>
  <line x1="64" y1="256" x2="448" y2="256" stroke="#FFFFFF" stroke-opacity="0.7" stroke-width="2"/>
  <g transform="translate(180 100) scale(1.4)" fill="none" stroke="#7B1E2B" stroke-width="3.6" stroke-linecap="round" stroke-linejoin="round">
    <path d="M34 38 C30 24 30 12 36 6 C42 12 42 26 40 38"/>
    <path d="M52 38 C56 24 56 12 50 6 C44 12 44 26 46 38"/>
    <ellipse cx="43" cy="50" rx="14" ry="13"/>
    <circle cx="38" cy="50" r="1.6" fill="#7B1E2B"/>
    <circle cx="48" cy="50" r="1.6" fill="#7B1E2B"/>
  </g>
  <g transform="translate(168 300) scale(1.4)" fill="none" stroke="#1F3A6E" stroke-width="3.6" stroke-linecap="round" stroke-linejoin="round">
    <circle cx="28" cy="24" r="7"/>
    <circle cx="60" cy="24" r="7"/>
    <ellipse cx="44" cy="36" rx="16" ry="14"/>
    <ellipse cx="44" cy="40" rx="7" ry="5"/>
    <circle cx="38" cy="34" r="1.8" fill="#1F3A6E"/>
    <circle cx="50" cy="34" r="1.8" fill="#1F3A6E"/>
  </g>
</svg>
