<svg xmlns="http://www.w3.org/2000/svg" viewBox="0 0 512 512">
  <defs>
    <clipPath id="rounded">
      <rect x="0" y="0" width="512" height="512" rx="96" ry="96"/>
    </clipPath>
  </defs>
  <g clip-path="url(#rounded)">
    <rect x="0" y="0" width="512" height="256" fill="#F3CFD4"/>
    <rect x="0" y="256" width="512" height="256" fill="#BFD2E8"/>
    <line x1="0" y1="256" x2="512" y2="256" stroke="#FFFFFF" stroke-opacity="0.7" stroke-width="2"/>
    <g transform="translate(154 38) scale(1.7)" fill="none" stroke="#7B1E2B" stroke-width="3.4" stroke-linecap="round" stroke-linejoin="round">
      <path d="M34 38 C30 24 30 12 36 6 C42 12 42 26 40 38"/>
      <path d="M52 38 C56 24 56 12 50 6 C44 12 44 26 46 38"/>
      <ellipse cx="43" cy="50" rx="14" ry="13"/>
      <circle cx="38" cy="50" r="1.6" fill="#7B1E2B"/>
      <circle cx="48" cy="50" r="1.6" fill="#7B1E2B"/>
      <path d="M28 64 C22 70 22 82 32 86 C40 90 50 90 58 86 C66 82 66 70 60 64"/>
      <circle cx="64" cy="78" r="3"/>
    </g>
    <g transform="translate(140 296) scale(1.7)" fill="none" stroke="#1F3A6E" stroke-width="3.4" stroke-linecap="round" stroke-linejoin="round">
      <circle cx="28" cy="24" r="7"/>
      <circle cx="60" cy="24" r="7"/>
      <ellipse cx="44" cy="36" rx="16" ry="14"/>
      <ellipse cx="44" cy="40" rx="7" ry="5"/>
      <circle cx="38" cy="34" r="1.8" fill="#1F3A6E"/>
      <circle cx="50" cy="34" r="1.8" fill="#1F3A6E"/>
      <path d="M28 52 C20 60 20 78 30 84 C38 88 50 88 58 84 C68 78 68 60 60 52"/>
      <ellipse cx="44" cy="70" rx="9" ry="10"/>
    </g>
  </g>
</svg>
